<svg width="25" height="24" viewBox="0 0 25 24" fill="none" xmlns="http://www.w3.org/2000/svg">
<path fill-rule="evenodd" clip-rule="evenodd" d="M22.811 1.5892L23.1998 0.453996H23.195L23.1902 0.449196L23.1686 0.444396L23.1086 0.425196C22.8069 0.335539 22.5009 0.261045 22.1918 0.201996C21.3986 0.0514887 20.5915 -0.0128849 19.7846 0.00999563C17.831 0.0651956 15.2894 0.669996 13.0934 2.866C12.4934 3.466 11.7686 4.354 11.0294 5.3356C8.18535 4.5196 4.90456 5.4196 2.57176 7.7548C2.34679 7.97983 2.22041 8.285 2.22041 8.6032C2.22041 8.92139 2.34679 9.22656 2.57176 9.4516L6.99496 13.8724L10.523 17.4028L14.9486 21.8284C15.1736 22.0534 15.4788 22.1797 15.797 22.1797C16.1152 22.1797 16.4203 22.0534 16.6454 21.8284C18.9806 19.4932 19.871 16.2172 19.0574 13.378C20.0414 12.634 20.9342 11.9068 21.5366 11.3044C23.7302 9.1084 24.335 6.5668 24.3926 4.6132C24.4203 3.56157 24.2999 2.51127 24.035 1.4932C24.0161 1.42486 23.9961 1.35685 23.975 1.2892L23.9558 1.2316L23.951 1.2124L23.9486 1.2052V1.2004L22.811 1.5892ZM22.811 1.5892L23.1998 0.453996C23.3726 0.513034 23.5296 0.610741 23.659 0.739673C23.7883 0.868605 23.8866 1.02536 23.9462 1.198L22.811 1.5892ZM17.7302 4.8676C17.2521 4.8676 16.7937 5.05749 16.4557 5.39551C16.1176 5.73352 15.9278 6.19197 15.9278 6.67C15.9278 7.14802 16.1176 7.60647 16.4557 7.94448C16.7937 8.2825 17.2521 8.4724 17.7302 8.4724C18.2082 8.4724 18.6666 8.2825 19.0046 7.94448C19.3427 7.60647 19.5326 7.14802 19.5326 6.67C19.5326 6.19197 19.3427 5.73352 19.0046 5.39551C18.6666 5.05749 18.2082 4.8676 17.7302 4.8676ZM0.399756 22.8244C0.405895 23.1344 0.531766 23.4299 0.750992 23.6492C0.970218 23.8684 1.26578 23.9943 1.57576 24.0004H1.59016H1.63096C1.84458 24.0029 2.05824 24.0005 2.27176 23.9932C2.80569 23.981 3.33892 23.9474 3.87016 23.8924C4.51613 23.831 5.15592 23.7162 5.78296 23.5492C6.37336 23.3812 7.07896 23.1076 7.58296 22.6012C7.97858 22.2251 8.29495 21.7736 8.51345 21.2734C8.73195 20.7732 8.84816 20.2343 8.85523 19.6885C8.8623 19.1427 8.7601 18.601 8.55463 18.0952C8.34917 17.5895 8.0446 17.13 7.65885 16.7438C7.27311 16.3576 6.81399 16.0524 6.30853 15.8463C5.80306 15.6402 5.26147 15.5374 4.71565 15.5437C4.16982 15.5501 3.63079 15.6657 3.13029 15.8836C2.62979 16.1014 2.17795 16.4172 1.80136 16.8124C1.29736 17.3164 1.02136 18.0244 0.853356 18.6148C0.686164 19.2418 0.571369 19.8816 0.510156 20.5276C0.43228 21.2714 0.395425 22.0189 0.399756 22.7668V22.8076V22.8196V22.8244Z" fill="url(#paint0_linear_5_2163)"/>
<defs>
<linearGradient id="paint0_linear_5_2163" x1="0.399414" y1="12.0034" x2="24.3965" y2="12.0034" gradientUnits="userSpaceOnUse">
<stop stop-color="#E8F843"/>
<stop offset="1" stop-color="#19FE62"/>
</linearGradient>
</defs>
</svg>
