<svg width="25" height="24" viewBox="0 0 25 24" fill="none" xmlns="http://www.w3.org/2000/svg">
<path fill-rule="evenodd" clip-rule="evenodd" d="M22.8112 1.5892L23.2 0.453996H23.1952L23.1904 0.449196L23.1688 0.444396L23.1088 0.425196C22.8071 0.335539 22.5011 0.261045 22.192 0.201996C21.3988 0.0514887 20.5917 -0.0128849 19.7848 0.00999563C17.8312 0.0651956 15.2896 0.669996 13.0936 2.866C12.4936 3.466 11.7688 4.354 11.0296 5.3356C8.18558 4.5196 4.90478 5.4196 2.57198 7.7548C2.34701 7.97983 2.22063 8.285 2.22063 8.6032C2.22063 8.92139 2.34701 9.22656 2.57198 9.4516L6.99518 13.8724L10.5232 17.4028L14.9488 21.8284C15.1738 22.0534 15.479 22.1797 15.7972 22.1797C16.1154 22.1797 16.4205 22.0534 16.6456 21.8284C18.9808 19.4932 19.8712 16.2172 19.0576 13.378C20.0416 12.634 20.9344 11.9068 21.5368 11.3044C23.7304 9.1084 24.3352 6.5668 24.3928 4.6132C24.4205 3.56157 24.3001 2.51127 24.0352 1.4932C24.0163 1.42486 23.9963 1.35685 23.9752 1.2892L23.956 1.2316L23.9512 1.2124L23.9488 1.2052V1.2004L22.8112 1.5892ZM22.8112 1.5892L23.2 0.453996C23.3728 0.513034 23.5299 0.610741 23.6592 0.739673C23.7886 0.868605 23.8868 1.02536 23.9464 1.198L22.8112 1.5892ZM17.7304 4.8676C17.2523 4.8676 16.7939 5.05749 16.4559 5.39551C16.1179 5.73352 15.928 6.19197 15.928 6.67C15.928 7.14802 16.1179 7.60647 16.4559 7.94448C16.7939 8.2825 17.2523 8.4724 17.7304 8.4724C18.2084 8.4724 18.6668 8.2825 19.0049 7.94448C19.3429 7.60647 19.5328 7.14802 19.5328 6.67C19.5328 6.19197 19.3429 5.73352 19.0049 5.39551C18.6668 5.05749 18.2084 4.8676 17.7304 4.8676ZM0.399977 22.8244C0.406117 23.1344 0.531987 23.4299 0.751213 23.6492C0.970439 23.8684 1.26601 23.9943 1.57598 24.0004H1.59038H1.63118C1.8448 24.0029 2.05846 24.0005 2.27198 23.9932C2.80591 23.981 3.33914 23.9474 3.87038 23.8924C4.51635 23.831 5.15614 23.7162 5.78318 23.5492C6.37358 23.3812 7.07918 23.1076 7.58318 22.6012C7.9788 22.2251 8.29517 21.7736 8.51367 21.2734C8.73217 20.7732 8.84838 20.2343 8.85545 19.6885C8.86252 19.1427 8.76032 18.601 8.55485 18.0952C8.34939 17.5895 8.04482 17.13 7.65907 16.7438C7.27333 16.3576 6.81421 16.0524 6.30875 15.8463C5.80328 15.6402 5.26169 15.5374 4.71587 15.5437C4.17004 15.5501 3.63101 15.6657 3.13051 15.8836C2.63002 16.1014 2.17817 16.4172 1.80158 16.8124C1.29758 17.3164 1.02158 18.0244 0.853577 18.6148C0.686385 19.2418 0.57159 19.8816 0.510377 20.5276C0.432502 21.2714 0.395646 22.0189 0.399977 22.7668V22.8076V22.8196V22.8244Z" fill="#4B6452"/>
</svg>
