<svg width="25" height="24" viewBox="0 0 25 24" fill="none" xmlns="http://www.w3.org/2000/svg">
<path fill-rule="evenodd" clip-rule="evenodd" d="M8.60001 0C7.32697 0 6.10608 0.505713 5.2059 1.40589C4.30573 2.30606 3.80001 3.52696 3.80001 4.8C3.80001 6.07304 4.30573 7.29394 5.2059 8.19411C6.10608 9.09429 7.32697 9.6 8.60001 9.6C9.87305 9.6 11.094 9.09429 11.9941 8.19411C12.8943 7.29394 13.4 6.07304 13.4 4.8C13.4 3.52696 12.8943 2.30606 11.9941 1.40589C11.094 0.505713 9.87305 0 8.60001 0ZM0.200013 20.4C0.197613 15.816 4.01361 11.9952 8.60001 11.9952C13.184 11.9952 17 15.8112 17 20.4V22.8C17 23.1183 16.8736 23.4235 16.6485 23.6485C16.4235 23.8736 16.1183 24 15.8 24H1.40001C1.08175 24 0.776529 23.8736 0.551485 23.6485C0.326442 23.4235 0.200013 23.1183 0.200013 22.8V20.4ZM23 24H19.196C19.328 23.6256 19.4 23.22 19.4 22.8V20.4C19.4 17.0304 17.816 13.9968 15.3584 12.0072C15.5024 12 15.6512 11.9952 15.7976 11.9952C20.384 11.9952 24.2024 15.8112 24.2 20.4V22.8C24.2 23.1183 24.0736 23.4235 23.8485 23.6485C23.6235 23.8736 23.3183 24 23 24ZM15.8 9.6C15.2384 9.6 14.7008 9.504 14.1992 9.3264C15.2372 8.04644 15.8025 6.44795 15.8 4.8C15.8 3.084 15.2 1.512 14.1992 0.2736C14.8582 0.0410494 15.56 -0.0448202 16.2555 0.0219903C16.9511 0.0888009 17.6237 0.30668 18.2264 0.660407C18.829 1.01413 19.3472 1.49518 19.7446 2.06993C20.1421 2.64468 20.4092 3.29928 20.5274 3.98799C20.6456 4.67671 20.6121 5.38293 20.429 6.05732C20.246 6.73171 19.9179 7.358 19.4677 7.89244C19.0175 8.42687 18.456 8.85657 17.8225 9.15151C17.1891 9.44644 16.4988 9.59951 15.8 9.6Z" fill="#4B6452"/>
</svg>
