<svg width="25" height="24" viewBox="0 0 25 24" fill="none" xmlns="http://www.w3.org/2000/svg">
<path fill-rule="evenodd" clip-rule="evenodd" d="M1.85601 1.056C2.53049 0.380676 3.44555 0.00084025 4.40001 0L21.2 0C22.1548 0 23.0705 0.379285 23.7456 1.05442C24.4207 1.72955 24.8 2.64522 24.8 3.6V10.5H18.8C18.3104 10.5 17.852 10.74 17.5712 11.1408L14.8928 14.9664L11.1728 6.5904C11.0707 6.35994 10.9121 6.15893 10.7117 6.00597C10.5113 5.853 10.2756 5.753 10.0264 5.7152C9.77712 5.67741 9.52238 5.70304 9.28566 5.78974C9.04894 5.87643 8.83789 6.02138 8.67201 6.2112L4.91841 10.5H0.800007V3.6C0.800007 2.6448 1.17921 1.728 1.85601 1.056ZM0.800007 13.4976V20.4C0.800007 21.3548 1.17929 22.2705 1.85442 22.9456C2.52955 23.6207 3.44523 24 4.40001 24H21.2C22.1548 24 23.0705 23.6207 23.7456 22.9456C24.4207 22.2705 24.8 21.3548 24.8 20.4V13.5H19.58L15.8288 18.8592C15.6766 19.0768 15.4693 19.25 15.2282 19.3613C14.9871 19.4725 14.7207 19.5177 14.4564 19.4924C14.1921 19.467 13.9392 19.3719 13.7237 19.2168C13.5082 19.0617 13.3377 18.8522 13.2296 18.6096L9.38241 9.9552L6.72801 12.9888C6.58722 13.1494 6.41376 13.2781 6.21923 13.3662C6.0247 13.4544 5.81358 13.5 5.60001 13.5L0.800007 13.4976Z" fill="#4B6452"/>
</svg>
