<svg width="25" height="24" viewBox="0 0 25 24" fill="none" xmlns="http://www.w3.org/2000/svg">
<path fill-rule="evenodd" clip-rule="evenodd" d="M1.85629 1.056C2.53078 0.380676 3.44584 0.00084025 4.40029 0L21.2003 0C22.1551 0 23.0707 0.379285 23.7459 1.05442C24.421 1.72955 24.8003 2.64522 24.8003 3.6V10.5H18.8003C18.3107 10.5 17.8523 10.74 17.5715 11.1408L14.8931 14.9664L11.1731 6.5904C11.0709 6.35994 10.9123 6.15893 10.712 6.00597C10.5116 5.853 10.2759 5.753 10.0267 5.7152C9.77741 5.67741 9.52266 5.70304 9.28594 5.78974C9.04923 5.87643 8.83818 6.02138 8.67229 6.2112L4.91869 10.5H0.800293V3.6C0.800293 2.6448 1.17949 1.728 1.85629 1.056ZM0.800293 13.4976V20.4C0.800293 21.3548 1.17958 22.2705 1.85471 22.9456C2.52984 23.6207 3.44551 24 4.40029 24H21.2003C22.1551 24 23.0707 23.6207 23.7459 22.9456C24.421 22.2705 24.8003 21.3548 24.8003 20.4V13.5H19.5803L15.8291 18.8592C15.6769 19.0768 15.4696 19.25 15.2285 19.3613C14.9874 19.4725 14.721 19.5177 14.4567 19.4924C14.1924 19.467 13.9395 19.3719 13.724 19.2168C13.5085 19.0617 13.3379 18.8522 13.2299 18.6096L9.38269 9.9552L6.72829 12.9888C6.5875 13.1494 6.41404 13.2781 6.21951 13.3662C6.02498 13.4544 5.81387 13.5 5.60029 13.5L0.800293 13.4976Z" fill="url(#paint0_linear_5_2364)"/>
<defs>
<linearGradient id="paint0_linear_5_2364" x1="0.800293" y1="12" x2="24.8003" y2="12" gradientUnits="userSpaceOnUse">
<stop stop-color="#E8F843"/>
<stop offset="1" stop-color="#19FE62"/>
</linearGradient>
</defs>
</svg>
