<svg width="18" height="24" viewBox="0 0 18 24" fill="none" xmlns="http://www.w3.org/2000/svg">
<path fill-rule="evenodd" clip-rule="evenodd" d="M8.99881 0.23999C9.64849 0.23999 10.1751 0.76655 10.1751 1.41599V3.20375C10.1751 4.10927 9.19489 4.67495 8.41081 4.22231C8.04697 4.01231 7.82281 3.62399 7.82281 3.20375V1.41599C7.82281 0.76655 8.34937 0.23999 8.99881 0.23999ZM2.69497 2.85095C3.15409 2.39183 3.89857 2.39183 4.35793 2.85095L5.62105 4.11407C6.26113 4.75511 5.96737 5.84879 5.09209 6.08255C4.68601 6.19103 4.25281 6.07463 3.95569 5.77703L2.69497 4.51391C2.23561 4.05479 2.23561 3.31031 2.69497 2.85095ZM1.26001 7.97879C0.354731 7.97879 -0.211189 8.95895 0.241451 9.74303C0.451451 10.1069 0.839771 10.331 1.26001 10.331H3.04537C3.95065 10.331 4.51657 9.35087 4.06393 8.56679C3.85369 8.20295 3.46561 7.97879 3.04537 7.97879H1.26001ZM14.9523 7.97879C14.047 7.97879 13.4811 8.95895 13.9337 9.74303C14.1439 10.1069 14.5323 10.331 14.9523 10.331H16.74C17.6455 10.331 18.2112 9.35087 17.7586 8.56679C17.5486 8.20295 17.1603 7.97879 16.74 7.97879H14.9523ZM12.3766 4.11407C11.7478 4.76543 12.0595 5.85335 12.9382 6.07223C13.3315 6.17039 13.7479 6.05879 14.0398 5.77703L15.3029 4.51391C15.9317 3.86279 15.6199 2.77487 14.7413 2.55575C14.3479 2.45759 13.9315 2.56919 13.6397 2.85095L12.3766 4.11407ZM8.91889 6.43823C7.44169 6.43823 6.24433 7.63535 6.24433 9.11255V15.8825L4.50841 16.8468C3.43345 17.4434 2.96977 18.7466 3.42649 19.8883L4.82353 23.3906C4.91305 23.6138 5.12905 23.76 5.36929 23.76H16.2485C16.5408 23.7593 16.7885 23.544 16.8295 23.2543L17.6597 17.442C17.8467 16.1419 16.9716 14.9268 15.6792 14.6921L11.5911 13.8924V9.11255C11.5911 7.63535 10.3961 6.43823 8.91889 6.43823Z" fill="#4B6452"/>
</svg>
