<svg width="18" height="24" viewBox="0 0 18 24" fill="none" xmlns="http://www.w3.org/2000/svg">
<path fill-rule="evenodd" clip-rule="evenodd" d="M8.99868 0.23999C9.64836 0.23999 10.1749 0.76655 10.1749 1.41599V3.20375C10.1749 4.10927 9.19476 4.67495 8.41068 4.22231C8.04684 4.01231 7.82268 3.62399 7.82268 3.20375V1.41599C7.82268 0.76655 8.34924 0.23999 8.99868 0.23999ZM2.69484 2.85095C3.15396 2.39183 3.89844 2.39183 4.3578 2.85095L5.62092 4.11407C6.261 4.75511 5.96724 5.84879 5.09196 6.08255C4.68588 6.19103 4.25268 6.07463 3.95556 5.77703L2.69484 4.51391C2.23548 4.05479 2.23548 3.31031 2.69484 2.85095ZM1.25988 7.97879C0.354601 7.97879 -0.211319 8.95895 0.241321 9.74303C0.451321 10.1069 0.839641 10.331 1.25988 10.331H3.04524C3.95052 10.331 4.51644 9.35087 4.0638 8.56679C3.85356 8.20295 3.46548 7.97879 3.04524 7.97879H1.25988ZM14.9521 7.97879C14.0468 7.97879 13.4809 8.95895 13.9336 9.74303C14.1438 10.1069 14.5321 10.331 14.9521 10.331H16.7399C17.6454 10.331 18.2111 9.35087 17.7584 8.56679C17.5484 8.20295 17.1601 7.97879 16.7399 7.97879H14.9521ZM12.3764 4.11407C11.7476 4.76543 12.0594 5.85335 12.938 6.07223C13.3314 6.17039 13.7478 6.05879 14.0396 5.77703L15.3028 4.51391C15.9316 3.86279 15.6198 2.77487 14.7412 2.55575C14.3478 2.45759 13.9314 2.56919 13.6396 2.85095L12.3764 4.11407ZM8.91876 6.43823C7.44156 6.43823 6.2442 7.63535 6.2442 9.11255V15.8825L4.50828 16.8468C3.43332 17.4434 2.96964 18.7466 3.42636 19.8883L4.8234 23.3906C4.91292 23.6138 5.12892 23.76 5.36916 23.76H16.2484C16.5407 23.7593 16.7884 23.544 16.8294 23.2543L17.6596 17.442C17.8465 16.1419 16.9715 14.9268 15.6791 14.6921L11.5909 13.8924V9.11255C11.5909 7.63535 10.396 6.43823 8.91876 6.43823Z" fill="url(#paint0_linear_4_1449)"/>
<defs>
<linearGradient id="paint0_linear_4_1449" x1="0.0820313" y1="12" x2="17.9178" y2="12" gradientUnits="userSpaceOnUse">
<stop stop-color="#E8F843"/>
<stop offset="1" stop-color="#19FE62"/>
</linearGradient>
</defs>
</svg>
