<svg width="20" height="24" viewBox="0 0 20 24" fill="none" xmlns="http://www.w3.org/2000/svg">
<path fill-rule="evenodd" clip-rule="evenodd" d="M15.6 3.6H13.2C13.2 2.64522 12.8207 1.72955 12.1456 1.05442C11.4704 0.379285 10.5548 0 9.59999 0C8.64521 0 7.72953 0.379285 7.0544 1.05442C6.37927 1.72955 5.99998 2.64522 5.99998 3.6H3.59998C2.64521 3.6 1.72953 3.97929 1.0544 4.65442C0.37927 5.32955 -1.52588e-05 6.24522 -1.52588e-05 7.2V20.4C-1.52588e-05 21.3548 0.37927 22.2705 1.0544 22.9456C1.72953 23.6207 2.64521 24 3.59998 24H15.6C16.5548 24 17.4704 23.6207 18.1456 22.9456C18.8207 22.2705 19.2 21.3548 19.2 20.4V7.2C19.2 6.24522 18.8207 5.32955 18.1456 4.65442C17.4704 3.97929 16.5548 3.6 15.6 3.6ZM14.748 11.0328C14.9689 10.7018 15.0492 10.2966 14.9713 9.90641C14.8935 9.51618 14.6638 9.17287 14.3328 8.952C14.0018 8.73113 13.5966 8.65079 13.2064 8.72865C12.8162 8.80652 12.4729 9.03621 12.252 9.3672L8.46719 15.048L6.76078 13.344C6.62319 13.1979 6.45768 13.0809 6.27404 12.9999C6.0904 12.9189 5.89238 12.8756 5.69171 12.8725C5.49103 12.8695 5.29178 12.9067 5.10575 12.982C4.91972 13.0574 4.75071 13.1693 4.60871 13.3111C4.46671 13.4529 4.35462 13.6218 4.27908 13.8078C4.20354 13.9937 4.16608 14.1929 4.16892 14.3936C4.17176 14.5943 4.21485 14.7923 4.29562 14.9761C4.3764 15.1598 4.49323 15.3254 4.63918 15.4632L7.63919 18.4632C7.79607 18.6202 7.98583 18.7404 8.19479 18.8151C8.40374 18.8899 8.62669 18.9174 8.84754 18.8956C9.06839 18.8738 9.28166 18.8032 9.47195 18.689C9.66225 18.5748 9.82483 18.4198 9.94798 18.2352L14.748 11.0328Z" fill="#4B6452"/>
</svg>
