<svg width="20" height="24" viewBox="0 0 20 24" fill="none" xmlns="http://www.w3.org/2000/svg">
<path fill-rule="evenodd" clip-rule="evenodd" d="M15.6001 3.6H13.2001C13.2001 2.64522 12.8208 1.72955 12.1456 1.05442C11.4705 0.379285 10.5548 0 9.60006 0C8.64528 0 7.72961 0.379285 7.05448 1.05442C6.37935 1.72955 6.00006 2.64522 6.00006 3.6H3.60006C2.64528 3.6 1.72961 3.97929 1.05448 4.65442C0.379346 5.32955 6.10352e-05 6.24522 6.10352e-05 7.2V20.4C6.10352e-05 21.3548 0.379346 22.2705 1.05448 22.9456C1.72961 23.6207 2.64528 24 3.60006 24H15.6001C16.5548 24 17.4705 23.6207 18.1456 22.9456C18.8208 22.2705 19.2001 21.3548 19.2001 20.4V7.2C19.2001 6.24522 18.8208 5.32955 18.1456 4.65442C17.4705 3.97929 16.5548 3.6 15.6001 3.6ZM14.7481 11.0328C14.9689 10.7018 15.0493 10.2966 14.9714 9.90641C14.8935 9.51618 14.6639 9.17287 14.3329 8.952C14.0019 8.73113 13.5967 8.65079 13.2065 8.72865C12.8162 8.80652 12.4729 9.03621 12.2521 9.3672L8.46726 15.048L6.76086 13.344C6.62327 13.1979 6.45775 13.0809 6.27412 12.9999C6.09048 12.9189 5.89246 12.8756 5.69178 12.8725C5.4911 12.8695 5.29185 12.9067 5.10583 12.982C4.9198 13.0574 4.75078 13.1693 4.60878 13.3111C4.46679 13.4529 4.3547 13.6218 4.27916 13.8078C4.20361 13.9937 4.16615 14.1929 4.16899 14.3936C4.17184 14.5943 4.21492 14.7923 4.2957 14.9761C4.37648 15.1598 4.4933 15.3254 4.63926 15.4632L7.63926 18.4632C7.79615 18.6202 7.98591 18.7404 8.19486 18.8151C8.40382 18.8899 8.62676 18.9174 8.84762 18.8956C9.06847 18.8738 9.28173 18.8032 9.47203 18.689C9.66232 18.5748 9.82491 18.4198 9.94806 18.2352L14.7481 11.0328Z" fill="url(#paint0_linear_2_488)"/>
<defs>
<linearGradient id="paint0_linear_2_488" x1="6.10352e-05" y1="12" x2="19.2001" y2="12" gradientUnits="userSpaceOnUse">
<stop stop-color="#E8F843"/>
<stop offset="1" stop-color="#19FE62"/>
</linearGradient>
</defs>
</svg>
