<svg width="21" height="20" viewBox="0 0 21 20" fill="none" xmlns="http://www.w3.org/2000/svg">
<path d="M13 16.6667H4.66667C3.562 16.6653 2.50296 16.2259 1.72185 15.4448C0.940735 14.6637 0.501323 13.6047 0.5 12.5L0.5 4.16667C0.501323 3.062 0.940735 2.00296 1.72185 1.22185C2.50296 0.440735 3.562 0.00132321 4.66667 0L13 0C14.1047 0.00132321 15.1637 0.440735 15.9448 1.22185C16.7259 2.00296 17.1653 3.062 17.1667 4.16667V12.5C17.1653 13.6047 16.7259 14.6637 15.9448 15.4448C15.1637 16.2259 14.1047 16.6653 13 16.6667ZM20.5 15.8333V5C20.5 4.77899 20.4122 4.56702 20.2559 4.41074C20.0996 4.25446 19.8877 4.16667 19.6667 4.16667C19.4457 4.16667 19.2337 4.25446 19.0774 4.41074C18.9211 4.56702 18.8333 4.77899 18.8333 5V15.8333C18.8333 16.4964 18.5699 17.1323 18.1011 17.6011C17.6323 18.0699 16.9964 18.3333 16.3333 18.3333H5.5C5.27899 18.3333 5.06702 18.4211 4.91074 18.5774C4.75446 18.7337 4.66667 18.9457 4.66667 19.1667C4.66667 19.3877 4.75446 19.5996 4.91074 19.7559C5.06702 19.9122 5.27899 20 5.5 20H16.3333C17.438 19.9987 18.497 19.5593 19.2782 18.7782C20.0593 17.997 20.4987 16.938 20.5 15.8333Z" fill="black"/>
</svg>
