<svg width="107" height="24" viewBox="0 0 107 24" fill="none" xmlns="http://www.w3.org/2000/svg">
<path d="M98.0898 23.32C97.4978 23.32 96.9378 23.24 96.4098 23.08C95.8818 22.936 95.4098 22.736 94.9938 22.48C94.5938 22.24 94.2578 21.984 93.9858 21.712L95.3538 18.832C95.7218 19.264 96.1218 19.616 96.5538 19.888C97.0018 20.16 97.4818 20.296 97.9938 20.296C98.4418 20.296 98.8098 20.192 99.0978 19.984C99.3858 19.792 99.6258 19.416 99.8178 18.856L100.274 17.608L101.186 18.232H97.9698L94.1538 7.24001H97.9458L99.6258 12.784L100.49 16.72L101.378 12.784L103.034 7.24001H106.898L102.674 19.72C102.21 21.016 101.602 21.936 100.85 22.48C100.114 23.04 99.1938 23.32 98.0898 23.32Z" fill="#E7F1F4"/>
<path d="M92.6864 19H89.2544V2.92H92.6864V19Z" fill="#E7F1F4"/>
<path d="M81.9068 19.24C80.6588 19.24 79.5788 18.984 78.6668 18.472C77.7708 17.96 77.0828 17.24 76.6028 16.312C76.1228 15.384 75.8828 14.32 75.8828 13.12C75.8828 11.904 76.1228 10.84 76.6028 9.928C77.0828 9 77.7548 8.28 78.6188 7.768C79.4828 7.256 80.4828 7 81.6188 7C82.8668 7 83.9068 7.248 84.7388 7.744C85.5708 8.24 86.1948 8.912 86.6108 9.76C87.0268 10.608 87.2348 11.544 87.2348 12.568C87.2348 12.824 87.2188 13.096 87.1868 13.384C87.1708 13.656 87.1468 13.864 87.1148 14.008H78.3308V12.04H84.7148L84.1628 12.496C84.1628 11.568 83.9548 10.864 83.5388 10.384C83.1228 9.888 82.4908 9.64 81.6428 9.64C80.8428 9.64 80.2108 9.888 79.7468 10.384C79.2988 10.864 79.0748 11.592 79.0748 12.568V13.456C79.0748 14.144 79.1948 14.712 79.4348 15.16C79.6748 15.592 80.0108 15.92 80.4428 16.144C80.8908 16.352 81.3948 16.456 81.9548 16.456C82.5148 16.456 82.9868 16.384 83.3708 16.24C83.7548 16.096 84.0748 15.896 84.3308 15.64C84.5868 15.368 84.7868 15.064 84.9308 14.728L87.0188 16.816C86.5868 17.44 85.9548 18 85.1228 18.496C84.3068 18.992 83.2348 19.24 81.9068 19.24Z" fill="#E7F1F4"/>
<path d="M71.6624 19H67.3184L63.1904 7.24001H66.9824L68.6144 12.88L69.5264 17.008L70.4144 12.88L72.0464 7.24001H75.7904L71.6624 19Z" fill="#E7F1F4"/>
<path d="M57.0348 19.24C55.8508 19.24 54.8108 18.984 53.9148 18.472C53.0348 17.944 52.3548 17.216 51.8748 16.288C51.3948 15.36 51.1548 14.304 51.1548 13.12C51.1548 11.92 51.3948 10.864 51.8748 9.952C52.3548 9.024 53.0348 8.304 53.9148 7.792C54.8108 7.264 55.8508 7 57.0348 7C58.2508 7 59.3068 7.264 60.2028 7.792C61.1148 8.304 61.8108 9.024 62.2908 9.952C62.7868 10.864 63.0348 11.92 63.0348 13.12C63.0348 14.304 62.7868 15.36 62.2908 16.288C61.8108 17.216 61.1148 17.944 60.2028 18.472C59.3068 18.984 58.2508 19.24 57.0348 19.24ZM57.0828 16.456C57.5788 16.456 58.0108 16.344 58.3788 16.12C58.7468 15.896 59.0348 15.544 59.2428 15.064C59.4508 14.568 59.5548 13.92 59.5548 13.12C59.5548 12.32 59.4508 11.68 59.2428 11.2C59.0348 10.704 58.7468 10.344 58.3788 10.12C58.0108 9.896 57.5788 9.784 57.0828 9.784C56.6028 9.784 56.1788 9.896 55.8108 10.12C55.4428 10.344 55.1548 10.704 54.9468 11.2C54.7388 11.68 54.6348 12.32 54.6348 13.12C54.6348 13.92 54.7388 14.568 54.9468 15.064C55.1548 15.544 55.4428 15.896 55.8108 16.12C56.1788 16.344 56.6028 16.456 57.0828 16.456Z" fill="#E7F1F4"/>
<path d="M42.7904 19H39.3584V2.92H42.7904V19ZM50.8304 19H40.5584V15.952H50.8304V19Z" fill="#E7F1F4"/>
<path d="M32.7239 19.24C31.8119 19.24 31.0999 19.032 30.5879 18.616C30.0759 18.2 29.7079 17.672 29.4839 17.032C29.2599 16.376 29.1079 15.688 29.0279 14.968L29.1239 13.744C29.1239 14.384 29.2039 14.912 29.3639 15.328C29.5399 15.744 29.7959 16.056 30.1319 16.264C30.4679 16.472 30.8759 16.576 31.3559 16.576C32.1399 16.576 32.7559 16.28 33.2039 15.688C33.6679 15.08 33.8999 14.224 33.8999 13.12C33.8999 11.984 33.6679 11.128 33.2039 10.552C32.7559 9.96 32.1399 9.664 31.3559 9.664C30.8759 9.664 30.4679 9.768 30.1319 9.976C29.7959 10.168 29.5399 10.472 29.3639 10.888C29.2039 11.304 29.1239 11.832 29.1239 12.472L29.0279 11.248C29.1079 10.528 29.2679 9.84 29.5079 9.184C29.7639 8.528 30.1559 8 30.6839 7.6C31.2279 7.184 31.9559 6.976 32.8679 6.976C33.7799 6.976 34.5719 7.216 35.2439 7.696C35.9319 8.176 36.4599 8.872 36.8279 9.784C37.1959 10.696 37.3799 11.808 37.3799 13.12C37.3799 14.4 37.1879 15.504 36.8039 16.432C36.4359 17.344 35.8999 18.04 35.1959 18.52C34.5079 19 33.6839 19.24 32.7239 19.24ZM29.1239 23.464H25.6919V7.24H29.1239V23.464Z" fill="#E7F1F4"/>
<path d="M24.0702 19H22.0543C21.6383 19 21.2463 18.928 20.8783 18.784C20.5103 18.64 20.2062 18.408 19.9662 18.088C19.7422 17.752 19.6303 17.304 19.6303 16.744V12.688L19.7262 12.208C19.7262 11.488 19.6063 10.928 19.3663 10.528C19.1263 10.128 18.6062 9.928 17.8062 9.928C17.0542 9.928 16.3583 10.12 15.7183 10.504C15.0783 10.872 14.5502 11.352 14.1342 11.944L12.4062 9.448C12.7903 9.016 13.2622 8.616 13.8222 8.248C14.3822 7.88 15.0143 7.584 15.7183 7.36C16.4383 7.12 17.2142 7 18.0462 7C19.5342 7 20.6862 7.392 21.5022 8.176C22.3342 8.944 22.7502 10.064 22.7502 11.536V15.568C22.7502 15.824 22.7983 16.008 22.8943 16.12C23.0063 16.216 23.1663 16.264 23.3743 16.264H24.0702V19ZM15.8142 19.264C14.9023 19.264 14.1582 19.024 13.5822 18.544C13.0062 18.048 12.7182 17.328 12.7182 16.384C12.7182 15.488 12.9982 14.768 13.5582 14.224C14.1342 13.664 14.9742 13.192 16.0782 12.808L19.9902 11.344L20.3022 13.384L17.1343 14.704C16.6703 14.896 16.3422 15.088 16.1502 15.28C15.9742 15.456 15.8862 15.656 15.8862 15.88C15.8862 16.152 15.9822 16.368 16.1742 16.528C16.3822 16.672 16.6863 16.744 17.0863 16.744C17.4863 16.744 17.8463 16.696 18.1663 16.6C18.4863 16.488 18.7503 16.336 18.9583 16.144C19.1823 15.952 19.3502 15.72 19.4622 15.448C19.5742 15.176 19.6303 14.856 19.6303 14.488L19.7022 15.64C19.5902 16.168 19.3902 16.712 19.1022 17.272C18.8302 17.816 18.4223 18.288 17.8783 18.688C17.3503 19.072 16.6623 19.264 15.8142 19.264Z" fill="#E7F1F4"/>
<path d="M8.56794 19H5.13594V2.92H8.56794V19ZM13.3679 5.968H0.335938V2.92H13.3679V5.968Z" fill="#E7F1F4"/>
<mask id="mask0_29_39869" style="mask-type:alpha" maskUnits="userSpaceOnUse" x="0" y="0" width="107" height="24">
<path d="M98.0898 23.32C97.4978 23.32 96.9378 23.24 96.4098 23.08C95.8818 22.936 95.4098 22.736 94.9938 22.48C94.5938 22.24 94.2578 21.984 93.9858 21.712L95.3538 18.832C95.7218 19.264 96.1218 19.616 96.5538 19.888C97.0018 20.16 97.4818 20.296 97.9938 20.296C98.4418 20.296 98.8098 20.192 99.0978 19.984C99.3858 19.792 99.6258 19.416 99.8178 18.856L100.274 17.608L101.186 18.232H97.9698L94.1538 7.24001H97.9458L99.6258 12.784L100.49 16.72L101.378 12.784L103.034 7.24001H106.898L102.674 19.72C102.21 21.016 101.602 21.936 100.85 22.48C100.114 23.04 99.1938 23.32 98.0898 23.32Z" fill="#E7F1F4"/>
<path d="M92.6864 19H89.2544V2.92H92.6864V19Z" fill="#E7F1F4"/>
<path d="M81.9068 19.24C80.6588 19.24 79.5788 18.984 78.6668 18.472C77.7708 17.96 77.0828 17.24 76.6028 16.312C76.1228 15.384 75.8828 14.32 75.8828 13.12C75.8828 11.904 76.1228 10.84 76.6028 9.928C77.0828 9 77.7548 8.28 78.6188 7.768C79.4828 7.256 80.4828 7 81.6188 7C82.8668 7 83.9068 7.248 84.7388 7.744C85.5708 8.24 86.1948 8.912 86.6108 9.76C87.0268 10.608 87.2348 11.544 87.2348 12.568C87.2348 12.824 87.2188 13.096 87.1868 13.384C87.1708 13.656 87.1468 13.864 87.1148 14.008H78.3308V12.04H84.7148L84.1628 12.496C84.1628 11.568 83.9548 10.864 83.5388 10.384C83.1228 9.888 82.4908 9.64 81.6428 9.64C80.8428 9.64 80.2108 9.888 79.7468 10.384C79.2988 10.864 79.0748 11.592 79.0748 12.568V13.456C79.0748 14.144 79.1948 14.712 79.4348 15.16C79.6748 15.592 80.0108 15.92 80.4428 16.144C80.8908 16.352 81.3948 16.456 81.9548 16.456C82.5148 16.456 82.9868 16.384 83.3708 16.24C83.7548 16.096 84.0748 15.896 84.3308 15.64C84.5868 15.368 84.7868 15.064 84.9308 14.728L87.0188 16.816C86.5868 17.44 85.9548 18 85.1228 18.496C84.3068 18.992 83.2348 19.24 81.9068 19.24Z" fill="#E7F1F4"/>
<path d="M71.6624 19H67.3184L63.1904 7.24001H66.9824L68.6144 12.88L69.5264 17.008L70.4144 12.88L72.0464 7.24001H75.7904L71.6624 19Z" fill="#E7F1F4"/>
<path d="M57.0348 19.24C55.8508 19.24 54.8108 18.984 53.9148 18.472C53.0348 17.944 52.3548 17.216 51.8748 16.288C51.3948 15.36 51.1548 14.304 51.1548 13.12C51.1548 11.92 51.3948 10.864 51.8748 9.952C52.3548 9.024 53.0348 8.304 53.9148 7.792C54.8108 7.264 55.8508 7 57.0348 7C58.2508 7 59.3068 7.264 60.2028 7.792C61.1148 8.304 61.8108 9.024 62.2908 9.952C62.7868 10.864 63.0348 11.92 63.0348 13.12C63.0348 14.304 62.7868 15.36 62.2908 16.288C61.8108 17.216 61.1148 17.944 60.2028 18.472C59.3068 18.984 58.2508 19.24 57.0348 19.24ZM57.0828 16.456C57.5788 16.456 58.0108 16.344 58.3788 16.12C58.7468 15.896 59.0348 15.544 59.2428 15.064C59.4508 14.568 59.5548 13.92 59.5548 13.12C59.5548 12.32 59.4508 11.68 59.2428 11.2C59.0348 10.704 58.7468 10.344 58.3788 10.12C58.0108 9.896 57.5788 9.784 57.0828 9.784C56.6028 9.784 56.1788 9.896 55.8108 10.12C55.4428 10.344 55.1548 10.704 54.9468 11.2C54.7388 11.68 54.6348 12.32 54.6348 13.12C54.6348 13.92 54.7388 14.568 54.9468 15.064C55.1548 15.544 55.4428 15.896 55.8108 16.12C56.1788 16.344 56.6028 16.456 57.0828 16.456Z" fill="#E7F1F4"/>
<path d="M42.7904 19H39.3584V2.92H42.7904V19ZM50.8304 19H40.5584V15.952H50.8304V19Z" fill="#E7F1F4"/>
<path d="M32.7239 19.24C31.8119 19.24 31.0999 19.032 30.5879 18.616C30.0759 18.2 29.7079 17.672 29.4839 17.032C29.2599 16.376 29.1079 15.688 29.0279 14.968L29.1239 13.744C29.1239 14.384 29.2039 14.912 29.3639 15.328C29.5399 15.744 29.7959 16.056 30.1319 16.264C30.4679 16.472 30.8759 16.576 31.3559 16.576C32.1399 16.576 32.7559 16.28 33.2039 15.688C33.6679 15.08 33.8999 14.224 33.8999 13.12C33.8999 11.984 33.6679 11.128 33.2039 10.552C32.7559 9.96 32.1399 9.664 31.3559 9.664C30.8759 9.664 30.4679 9.768 30.1319 9.976C29.7959 10.168 29.5399 10.472 29.3639 10.888C29.2039 11.304 29.1239 11.832 29.1239 12.472L29.0279 11.248C29.1079 10.528 29.2679 9.84 29.5079 9.184C29.7639 8.528 30.1559 8 30.6839 7.6C31.2279 7.184 31.9559 6.976 32.8679 6.976C33.7799 6.976 34.5719 7.216 35.2439 7.696C35.9319 8.176 36.4599 8.872 36.8279 9.784C37.1959 10.696 37.3799 11.808 37.3799 13.12C37.3799 14.4 37.1879 15.504 36.8039 16.432C36.4359 17.344 35.8999 18.04 35.1959 18.52C34.5079 19 33.6839 19.24 32.7239 19.24ZM29.1239 23.464H25.6919V7.24H29.1239V23.464Z" fill="#E7F1F4"/>
<path d="M24.0702 19H22.0543C21.6383 19 21.2463 18.928 20.8783 18.784C20.5103 18.64 20.2062 18.408 19.9662 18.088C19.7422 17.752 19.6303 17.304 19.6303 16.744V12.688L19.7262 12.208C19.7262 11.488 19.6063 10.928 19.3663 10.528C19.1263 10.128 18.6062 9.928 17.8062 9.928C17.0542 9.928 16.3583 10.12 15.7183 10.504C15.0783 10.872 14.5502 11.352 14.1342 11.944L12.4062 9.448C12.7903 9.016 13.2622 8.616 13.8222 8.248C14.3822 7.88 15.0143 7.584 15.7183 7.36C16.4383 7.12 17.2142 7 18.0462 7C19.5342 7 20.6862 7.392 21.5022 8.176C22.3342 8.944 22.7502 10.064 22.7502 11.536V15.568C22.7502 15.824 22.7983 16.008 22.8943 16.12C23.0063 16.216 23.1663 16.264 23.3743 16.264H24.0702V19ZM15.8142 19.264C14.9023 19.264 14.1582 19.024 13.5822 18.544C13.0062 18.048 12.7182 17.328 12.7182 16.384C12.7182 15.488 12.9982 14.768 13.5582 14.224C14.1342 13.664 14.9742 13.192 16.0782 12.808L19.9902 11.344L20.3022 13.384L17.1343 14.704C16.6703 14.896 16.3422 15.088 16.1502 15.28C15.9742 15.456 15.8862 15.656 15.8862 15.88C15.8862 16.152 15.9822 16.368 16.1742 16.528C16.3822 16.672 16.6863 16.744 17.0863 16.744C17.4863 16.744 17.8463 16.696 18.1663 16.6C18.4863 16.488 18.7503 16.336 18.9583 16.144C19.1823 15.952 19.3502 15.72 19.4622 15.448C19.5742 15.176 19.6303 14.856 19.6303 14.488L19.7022 15.64C19.5902 16.168 19.3902 16.712 19.1022 17.272C18.8302 17.816 18.4223 18.288 17.8783 18.688C17.3503 19.072 16.6623 19.264 15.8142 19.264Z" fill="#E7F1F4"/>
<path d="M8.56794 19H5.13594V2.92H8.56794V19ZM13.3679 5.968H0.335938V2.92H13.3679V5.968Z" fill="#E7F1F4"/>
</mask>
<g mask="url(#mask0_29_39869)">
<g opacity="0.5" filter="url(#filter0_f_29_39869)">
<circle cx="88" cy="8" r="22" fill="#F77DB0"/>
</g>
<g opacity="0.5" filter="url(#filter1_f_29_39869)">
<circle cx="30" cy="4" r="22" fill="#FF0079"/>
</g>
</g>
<defs>
<filter id="filter0_f_29_39869" x="56" y="-24" width="64" height="64" filterUnits="userSpaceOnUse" color-interpolation-filters="sRGB">
<feFlood flood-opacity="0" result="BackgroundImageFix"/>
<feBlend mode="normal" in="SourceGraphic" in2="BackgroundImageFix" result="shape"/>
<feGaussianBlur stdDeviation="5" result="effect1_foregroundBlur_29_39869"/>
</filter>
<filter id="filter1_f_29_39869" x="-2" y="-28" width="64" height="64" filterUnits="userSpaceOnUse" color-interpolation-filters="sRGB">
<feFlood flood-opacity="0" result="BackgroundImageFix"/>
<feBlend mode="normal" in="SourceGraphic" in2="BackgroundImageFix" result="shape"/>
<feGaussianBlur stdDeviation="5" result="effect1_foregroundBlur_29_39869"/>
</filter>
</defs>
</svg>
