<svg width="40" height="34" viewBox="0 0 40 34" fill="none" xmlns="http://www.w3.org/2000/svg">
<path d="M34.2258 18.3531H31.1323C31.4477 19.2164 31.6199 20.148 31.6199 21.119V32.8105C31.6199 33.2153 31.5495 33.6039 31.4212 33.9653H36.5354C38.4458 33.9653 39.9999 32.4111 39.9999 30.5008V24.1273C40 20.9434 37.4097 18.3531 34.2258 18.3531ZM8.38008 21.1191C8.38008 20.148 8.55234 19.2165 8.86766 18.3532H5.77422C2.59031 18.3532 0 20.9435 0 24.1274V30.5009C0 32.4112 1.55414 33.9655 3.46453 33.9655H8.57875C8.44712 33.5946 8.37993 33.204 8.38008 32.8105V21.1191ZM23.536 15.3449H16.464C13.2801 15.3449 10.6898 17.9352 10.6898 21.1191V32.8105C10.6898 33.4483 11.2068 33.9654 11.8446 33.9654H28.1554C28.7932 33.9654 29.3102 33.4483 29.3102 32.8105V21.1191C29.3102 17.9352 26.7199 15.3449 23.536 15.3449ZM20 0.0343628C16.1709 0.0343628 13.0558 3.14952 13.0558 6.97866C13.0558 9.57592 14.4893 11.8443 16.6063 13.0352C17.6105 13.6001 18.7681 13.9229 20 13.9229C21.2319 13.9229 22.3895 13.6001 23.3937 13.0352C25.5108 11.8443 26.9442 9.57585 26.9442 6.97866C26.9442 3.1496 23.8291 0.0343628 20 0.0343628ZM7.80609 6.50694C4.94242 6.50694 2.61273 8.83663 2.61273 11.7003C2.61273 14.564 4.94242 16.8937 7.80609 16.8937C8.50981 16.8943 9.20623 16.751 9.85258 16.4727C10.939 16.005 11.8348 15.177 12.3891 14.1399C12.7906 13.3895 13.0003 12.5514 12.9995 11.7003C12.9995 8.83671 10.6698 6.50694 7.80609 6.50694ZM32.1939 6.50694C29.3302 6.50694 27.0005 8.83663 27.0005 11.7003C26.9997 12.5514 27.2094 13.3895 27.6109 14.1399C28.1652 15.1771 29.061 16.0051 30.1474 16.4727C30.7938 16.751 31.4902 16.8943 32.1939 16.8937C35.0576 16.8937 37.3873 14.564 37.3873 11.7003C37.3873 8.83663 35.0576 6.50694 32.1939 6.50694Z" fill="black"/>
</svg>
