<svg width="34" height="36" viewBox="0 0 34 36" fill="none" xmlns="http://www.w3.org/2000/svg">
<path fill-rule="evenodd" clip-rule="evenodd" d="M11.9 0C10.0965 0 8.36692 0.758569 7.09168 2.10883C5.81643 3.45909 5.1 5.29044 5.1 7.2C5.1 9.10956 5.81643 10.9409 7.09168 12.2912C8.36692 13.6414 10.0965 14.4 11.9 14.4C13.7035 14.4 15.4331 13.6414 16.7083 12.2912C17.9836 10.9409 18.7 9.10956 18.7 7.2C18.7 5.29044 17.9836 3.45909 16.7083 2.10883C15.4331 0.758569 13.7035 0 11.9 0ZM1.6029e-06 30.6C-0.0033984 23.724 5.4026 17.9928 11.9 17.9928C18.394 17.9928 23.8 23.7168 23.8 30.6V34.2C23.8 34.6774 23.6209 35.1352 23.3021 35.4728C22.9833 35.8104 22.5509 36 22.1 36H1.7C1.24913 36 0.816732 35.8104 0.49792 35.4728C0.179108 35.1352 1.6029e-06 34.6774 1.6029e-06 34.2V30.6ZM32.3 36H26.911C27.098 35.4384 27.2 34.83 27.2 34.2V30.6C27.2 25.5456 24.956 20.9952 21.4744 18.0108C21.6784 18 21.8892 17.9928 22.0966 17.9928C28.594 17.9928 34.0034 23.7168 34 30.6V34.2C34 34.6774 33.8209 35.1352 33.5021 35.4728C33.1833 35.8104 32.7509 36 32.3 36ZM22.1 14.4C21.3044 14.4 20.5428 14.256 19.8322 13.9896C21.3027 12.0697 22.1036 9.67192 22.1 7.2C22.1 4.626 21.25 2.268 19.8322 0.4104C20.7657 0.0615741 21.7599 -0.0672303 22.7453 0.0329855C23.7307 0.133201 24.6836 0.46002 25.5374 0.99061C26.3911 1.5212 27.1251 2.24276 27.6882 3.10489C28.2512 3.96702 28.6297 4.94892 28.7972 5.98199C28.9647 7.01507 28.9171 8.0744 28.6578 9.08598C28.3985 10.0976 27.9337 11.037 27.2959 11.8387C26.6581 12.6403 25.8627 13.2849 24.9653 13.7273C24.0678 14.1697 23.09 14.3993 22.1 14.4Z" fill="#0A0B0A"/>
</svg>
