<svg width="64" height="64" viewBox="0 0 64 64" fill="none" xmlns="http://www.w3.org/2000/svg">
<path fill-rule="evenodd" clip-rule="evenodd" d="M22.4 0C19.0052 0 15.7495 1.34857 13.349 3.74903C10.9486 6.1495 9.6 9.40523 9.6 12.8C9.6 16.1948 10.9486 19.4505 13.349 21.851C15.7495 24.2514 19.0052 25.6 22.4 25.6C25.7948 25.6 29.0505 24.2514 31.451 21.851C33.8514 19.4505 35.2 16.1948 35.2 12.8C35.2 9.40523 33.8514 6.1495 31.451 3.74903C29.0505 1.34857 25.7948 0 22.4 0ZM3.01722e-06 54.4C-0.00639698 42.176 10.1696 31.9872 22.4 31.9872C34.624 31.9872 44.8 42.1632 44.8 54.4V60.8C44.8 61.6487 44.4629 62.4626 43.8627 63.0627C43.2626 63.6629 42.4487 64 41.6 64H3.2C2.35131 64 1.53738 63.6629 0.937261 63.0627C0.337145 62.4626 3.01722e-06 61.6487 3.01722e-06 60.8V54.4ZM60.8 64H50.656C51.008 63.0016 51.2 61.92 51.2 60.8V54.4C51.2 45.4144 46.976 37.3248 40.4224 32.0192C40.8064 32 41.2032 31.9872 41.5936 31.9872C53.824 31.9872 64.0064 42.1632 64 54.4V60.8C64 61.6487 63.6629 62.4626 63.0628 63.0627C62.4626 63.6629 61.6487 64 60.8 64ZM41.6 25.6C40.1024 25.6 38.6688 25.344 37.3312 24.8704C40.0992 21.4572 41.6067 17.1945 41.6 12.8C41.6 8.224 40 4.032 37.3312 0.7296C39.0884 0.109465 40.9599 -0.119521 42.8147 0.0586409C44.6696 0.236802 46.4633 0.817814 48.0703 1.76108C49.6774 2.70436 51.0591 3.98714 52.1189 5.51981C53.1788 7.05248 53.8912 8.79808 54.2065 10.6347C54.5217 12.4712 54.4321 14.3545 53.944 16.1529C53.4559 17.9512 52.581 19.6213 51.3805 21.0465C50.18 22.4717 48.6828 23.6175 46.9934 24.404C45.3041 25.1905 43.4634 25.5987 41.6 25.6Z" fill="white" fill-opacity="0.5"/>
</svg>
