<svg width="45" height="45" viewBox="0 0 45 45" fill="none" xmlns="http://www.w3.org/2000/svg">
<path fill-rule="evenodd" clip-rule="evenodd" d="M0 22.5C0 16.5326 2.37053 10.8097 6.5901 6.5901C10.8097 2.37053 16.5326 0 22.5 0C28.4674 0 34.1903 2.37053 38.4099 6.5901C42.6295 10.8097 45 16.5326 45 22.5C45 28.4674 42.6295 34.1903 38.4099 38.4099C34.1903 42.6295 28.4674 45 22.5 45C16.5326 45 10.8097 42.6295 6.5901 38.4099C2.37053 34.1903 0 28.4674 0 22.5ZM31.23 30.3255C32.7465 31.176 34.119 32.238 35.316 33.4755C33.7336 35.3273 31.7683 36.8137 29.5557 37.8322C27.343 38.8507 24.9358 39.3771 22.5 39.375C17.37 39.375 12.78 37.089 9.684 33.48C12.4229 30.6473 16.023 28.8014 19.9217 28.2307C23.8205 27.66 27.7941 28.3966 31.23 30.3255ZM22.5 23.5395C23.3864 23.5395 24.2642 23.3649 25.0831 23.0257C25.9021 22.6865 26.6462 22.1893 27.273 21.5625C27.8998 20.9357 28.397 20.1916 28.7362 19.3726C29.0754 18.5537 29.25 17.6759 29.25 16.7895C29.25 15.9031 29.0754 15.0253 28.7362 14.2064C28.397 13.3874 27.8998 12.6433 27.273 12.0165C26.6462 11.3897 25.9021 10.8925 25.0831 10.5533C24.2642 10.2141 23.3864 10.0395 22.5 10.0395C20.7098 10.0395 18.9929 10.7507 17.727 12.0165C16.4612 13.2824 15.75 14.9993 15.75 16.7895C15.75 18.5797 16.4612 20.2966 17.727 21.5625C18.9929 22.8283 20.7098 23.5395 22.5 23.5395Z" fill="url(#paint0_linear_75_13)"/>
<defs>
<linearGradient id="paint0_linear_75_13" x1="0" y1="22.5" x2="45" y2="22.5" gradientUnits="userSpaceOnUse">
<stop stop-color="#E8F843"/>
<stop offset="1" stop-color="#19FE62"/>
</linearGradient>
</defs>
</svg>
