<svg width="26" height="40" viewBox="0 0 26 40" fill="none" xmlns="http://www.w3.org/2000/svg">
<path d="M5.34559 11.9195C4.36668 10.9456 3.69883 9.70311 3.42665 8.34939C3.15447 6.99566 3.2902 5.59161 3.81665 4.31508C4.3431 3.03856 5.23658 1.94701 6.3839 1.1787C7.53123 0.410396 8.88078 -9.79036e-05 10.2616 -0.000777353C11.6424 -0.0014568 12.9924 0.407708 14.1405 1.17489C15.2885 1.94207 16.1831 3.03274 16.7108 4.30874C17.2385 5.58474 17.3756 6.98866 17.1048 8.34266C16.8339 9.69665 16.1673 10.9398 15.1893 11.9146C15.1312 11.9725 15.0622 12.0184 14.9863 12.0497C14.9104 12.081 14.8291 12.097 14.747 12.0968C14.665 12.0967 14.5837 12.0803 14.5079 12.0488C14.4322 12.0172 14.3634 11.971 14.3054 11.9129C14.2475 11.8547 14.2016 11.7857 14.1703 11.7099C14.1391 11.634 14.1231 11.5527 14.1232 11.4706C14.1234 11.3885 14.1397 11.3073 14.1713 11.2315C14.2028 11.1557 14.249 11.0869 14.3072 11.029C15.1097 10.2288 15.6567 9.20847 15.8788 8.09718C16.101 6.9859 15.9884 5.83368 15.5552 4.78647C15.122 3.73925 14.3878 2.84416 13.4455 2.21456C12.5032 1.58495 11.3952 1.24917 10.262 1.24974C9.12869 1.25031 8.02108 1.58721 7.07942 2.21776C6.13777 2.84831 5.40443 3.74414 4.97231 4.79179C4.54018 5.83944 4.4287 6.99177 4.65199 8.10283C4.87527 9.21389 5.42328 10.2337 6.2266 11.033C6.28532 11.0908 6.33203 11.1596 6.36407 11.2355C6.39611 11.3113 6.41284 11.3928 6.4133 11.4751C6.41376 11.5575 6.39793 11.6391 6.36674 11.7153C6.33554 11.7916 6.28959 11.8609 6.23152 11.9193C6.17345 11.9777 6.10441 12.024 6.02837 12.0557C5.95233 12.0873 5.87079 12.1036 5.78843 12.1036C5.70608 12.1036 5.62453 12.0874 5.54848 12.0558C5.47242 12.0242 5.40337 11.9778 5.34528 11.9195H5.34559ZM24.4622 18.0064C24.0536 17.7694 23.5899 17.6438 23.1176 17.6422C22.6453 17.6406 22.1808 17.7629 21.7706 17.997C21.7361 18.0169 21.7032 18.0386 21.67 18.0595C21.5585 16.3927 20.2206 15.5205 18.8965 15.5198H18.8942C18.1051 15.5198 17.3114 15.8295 16.7745 16.4324C16.2391 15.7725 15.4082 15.4329 14.5828 15.4324H14.5804C14.0396 15.4308 13.5088 15.5779 13.0459 15.8577L13.0503 6.97734C13.0502 6.24041 12.7578 5.53358 12.2374 5.01186C11.7169 4.49014 11.0108 4.1961 10.2739 4.19422H10.2686C9.53278 4.19689 8.82789 4.49032 8.30755 5.01053C7.78721 5.53074 7.49361 6.23555 7.49074 6.97133L7.48098 21.6445L5.93645 19.6112C5.06559 18.4623 3.72231 17.8494 2.43153 18.012C1.46426 18.1336 0.689338 18.6752 0.358869 19.4606C0.140744 19.979 -0.061912 21.0639 1.03184 22.5059C3.31613 25.5161 4.08614 27.7073 4.76543 29.6406C5.31871 31.2153 5.79668 32.5752 6.96074 33.9062C7.99114 35.0865 8.48614 36.4159 8.4741 37.9703L8.46301 39.3699C8.46234 39.452 8.47785 39.5334 8.50866 39.6095C8.53947 39.6856 8.58496 39.7549 8.64256 39.8134C8.70015 39.872 8.7687 39.9185 8.8443 39.9506C8.9199 39.9826 9.00107 39.9994 9.08317 40H21.107C21.2727 39.9987 21.4312 39.9316 21.5475 39.8134C21.6637 39.6953 21.7283 39.5358 21.727 39.3701L21.716 37.9688C21.7039 36.4106 22.1995 35.08 23.231 33.9008C24.8936 32.0017 25.8089 29.5629 25.8062 27.0388L25.8129 20.5416C25.8145 19.4283 25.3222 18.5044 24.4622 18.0064Z" fill="black"/>
</svg>
